<svg width="300" height="300" viewBox="0 0 300 300" fill="none" xmlns="http://www.w3.org/2000/svg">
<g clip-path="url(#clip0_4022_414)">
<path d="M0 2C0 0.895429 0.895431 0 2 0H300V300H0V2Z" fill="#23313A"/>
<path d="M70.0441 155.335L164.978 61.0617L167.689 58.6219C171.724 54.9906 176.368 52.1004 181.408 50.0844C192.749 45.5479 205.47 45.7158 216.701 50.5185C226.931 54.8932 235.283 62.8205 240.16 72.8208L241.214 74.9823C246.797 86.4324 247.167 99.7354 242.229 111.478C240.807 114.858 238.97 118.049 236.761 120.975L231.938 127.361L114.469 245.258C112.029 247.707 109.274 249.819 106.277 251.54L105.532 251.967C101.161 254.476 96.2502 256.016 91.2313 256.472C83.6812 257.159 76.0126 255.338 69.5922 251.307C63.731 247.626 59.0921 242.25 56.3241 235.907L56.2175 235.662C52.2707 226.618 52.4683 216.301 56.7585 207.414C58.4085 203.997 60.6216 200.881 63.3052 198.197L159.474 102.029C163.04 98.4617 167.697 96.1895 172.704 95.5733L173.275 95.503C177.206 95.0193 181.192 95.6754 184.76 97.3933C188.926 99.3989 192.298 102.744 194.337 106.893L194.539 107.304C196.517 111.328 197.217 115.861 196.545 120.294L196.505 120.562C195.771 125.407 193.499 129.887 190.024 133.342L118.502 204.454" stroke="white" stroke-width="14" stroke-linecap="round"/>
</g>
<defs>
<clipPath id="clip0_4022_414">
<rect width="300" height="300" rx="53" fill="white"/>
</clipPath>
</defs>
</svg>
