<svg width="300" height="300" viewBox="0 0 300 300" fill="none" xmlns="http://www.w3.org/2000/svg">
<path d="M0 53.9138C0 40.9827 10.4827 30.5 23.4138 30.5H94.2819C100.319 30.5 106.123 32.8321 110.482 37.0093L137.035 62.4562C141.394 66.6335 147.198 68.9655 153.235 68.9655H267.586C280.517 68.9655 291 79.4482 291 92.3793V107C291 108.105 290.105 109 289 109H144C124.67 109 109 124.67 109 144V265.983C109 267.087 108.105 267.983 107 267.983H23.4138C10.4827 267.983 0 257.5 0 244.569V53.9138Z" fill="#BFBFBF"/>
<g clip-path="url(#clip0_4017_159)">
<path d="M111 112.267C111 111.567 111.567 111 112.267 111H300.995V300.995H111V112.267Z" fill="#9B51E0"/>
<path d="M205.031 143.445C205.506 143.37 205.989 143.356 206.468 143.403L207.561 143.509C208.116 143.564 208.661 143.699 209.177 143.912L209.846 144.188C210.276 144.365 210.682 144.594 211.057 144.87L212.565 145.981C212.965 146.276 213.325 146.621 213.635 147.009L214.94 148.64C215.269 149.05 215.538 149.504 215.742 149.989L216.094 150.823C216.321 151.363 216.465 151.935 216.518 152.519L216.683 154.344C216.708 154.627 216.713 154.912 216.696 155.196L216.621 156.488C216.596 156.919 216.52 157.347 216.398 157.761L215.783 159.856C214.688 163.404 217.337 167.048 221.099 167.048H246.847C249.994 167.049 252.546 169.601 252.546 172.749V199.891C252.546 203.279 256.007 205.515 259.064 204.214L259.945 203.863L259.995 203.843L260.045 203.822L261.304 203.283C261.818 203.062 262.363 202.918 262.92 202.856L264.01 202.735C264.313 202.701 264.619 202.692 264.924 202.708L266.24 202.773C266.85 202.803 267.452 202.932 268.021 203.154L269.592 203.764L270.967 204.538C271.477 204.824 271.94 205.188 272.339 205.616L273.294 206.639C273.523 206.885 273.731 207.15 273.913 207.432L274.756 208.735C275.033 209.164 275.252 209.628 275.405 210.115L275.795 211.347C275.918 211.737 275.999 212.14 276.036 212.547L276.185 214.188C276.233 214.716 276.207 215.249 276.107 215.77L275.883 216.952C275.785 217.467 275.616 217.966 275.382 218.435L274.683 219.833C274.474 220.249 274.215 220.639 273.912 220.993L273.186 221.84C272.915 222.156 272.611 222.441 272.278 222.691L271.225 223.481C270.824 223.781 270.386 224.028 269.921 224.213L268.343 224.844C267.989 224.986 267.621 225.092 267.246 225.161L267.075 225.191C266.739 225.252 266.398 225.283 266.056 225.283H264.18C263.673 225.283 263.168 225.216 262.68 225.083L262.077 224.917L259.602 224.034L259.512 224.002L258.946 223.814C255.798 222.765 252.546 225.108 252.546 228.427V255.396C252.546 258.544 249.994 261.096 246.847 261.096H213.914V258.681C213.914 258.664 213.918 258.646 213.926 258.63C213.93 258.622 213.936 258.613 213.942 258.606L215.056 257.353L215.132 257.267L215.204 257.177L215.593 256.692C216.031 256.145 216.409 255.552 216.723 254.925C217.087 254.197 217.361 253.428 217.537 252.633L217.589 252.4C217.777 251.553 217.872 250.687 217.872 249.819V249.505C217.872 248.071 217.598 246.65 217.065 245.318C216.776 244.593 216.411 243.901 215.979 243.251L215.646 242.751C215.216 242.107 214.724 241.506 214.176 240.958C213.718 240.5 213.222 240.081 212.694 239.705L212.651 239.673C211.843 239.096 210.968 238.617 210.046 238.249L209.83 238.163C208.986 237.825 208.106 237.59 207.206 237.461C206.671 237.385 206.13 237.346 205.591 237.346C204.905 237.346 204.218 237.408 203.542 237.531L203.274 237.58C202.014 237.809 200.799 238.243 199.679 238.866C198.99 239.248 198.341 239.699 197.742 240.212L197.39 240.515C196.946 240.895 196.533 241.308 196.153 241.751C195.307 242.739 194.635 243.865 194.168 245.08L194.053 245.378C193.633 246.47 193.377 247.618 193.294 248.785C193.178 250.406 193.397 252.035 193.938 253.568L194.008 253.764C194.561 255.332 195.414 256.777 196.519 258.02L196.932 258.484L197.018 258.582L197.131 258.695V261.096H164.198C161.05 261.096 158.499 258.544 158.499 255.396V172.749C158.499 169.601 161.05 167.048 164.198 167.048H190.516C194.378 167.048 196.982 163.099 195.461 159.549L195.433 159.485L195.403 159.421L194.758 158.04C194.506 157.501 194.341 156.925 194.268 156.335L194.202 155.809C194.16 155.47 194.148 155.128 194.167 154.787L194.243 153.4C194.266 152.991 194.333 152.586 194.442 152.191L194.754 151.072C194.88 150.617 195.063 150.179 195.297 149.769L196.188 148.208C196.465 147.723 196.813 147.282 197.218 146.898L198.336 145.838C198.848 145.354 199.445 144.968 200.098 144.701L201.393 144.171C201.802 144.004 202.23 143.885 202.667 143.816L205.031 143.445Z" stroke="white" stroke-width="8.86642"/>
</g>
<defs>
<clipPath id="clip0_4017_159">
<rect x="111" y="111" width="189" height="189" rx="33.5657" fill="white"/>
</clipPath>
</defs>
</svg>
