<svg width="300" height="300" viewBox="0 0 300 300" fill="none" xmlns="http://www.w3.org/2000/svg">
<g clip-path="url(#clip0_4017_169)">
<path d="M0 2C0 0.895429 0.895431 0 2 0H300V300H0V2Z" fill="#9B51E0"/>
<path d="M148.475 51.2305C149.225 51.1128 149.987 51.0903 150.743 51.1641L152.468 51.333C153.345 51.4186 154.205 51.6321 155.021 51.9678L156.077 52.4033C156.756 52.6828 157.398 53.044 157.989 53.4795L160.371 55.2344C161.002 55.6996 161.571 56.246 162.061 56.8584L164.121 59.4336C164.64 60.0816 165.066 60.7986 165.388 61.5635L165.942 62.8809C166.301 63.7337 166.527 64.637 166.61 65.5586L166.873 68.4414C166.914 68.8878 166.921 69.3367 166.895 69.7842L166.774 71.8252C166.734 72.5065 166.616 73.1812 166.424 73.8359L165.484 77.0273C163.661 82.6664 167.865 88.5 173.845 88.5H214.5C219.47 88.5 223.5 92.5295 223.5 97.5V140.358C223.5 145.708 228.966 149.24 233.794 147.186L235.183 146.63L235.263 146.599L235.341 146.565L237.328 145.713C238.141 145.365 239.001 145.139 239.88 145.041L241.601 144.85C242.08 144.796 242.563 144.782 243.044 144.806L245.123 144.909C246.087 144.957 247.037 145.161 247.937 145.511L250.414 146.474L252.586 147.695C253.391 148.148 254.122 148.723 254.753 149.398L256.261 151.015C256.623 151.402 256.95 151.82 257.238 152.266L258.568 154.322C259.006 154.999 259.352 155.732 259.595 156.501L260.209 158.448C260.403 159.064 260.531 159.699 260.59 160.343L260.825 162.933C260.901 163.767 260.86 164.608 260.703 165.432L260.348 167.298C260.193 168.111 259.927 168.899 259.557 169.639L258.453 171.846C258.124 172.504 257.715 173.119 257.236 173.678L256.09 175.016C255.663 175.514 255.182 175.964 254.657 176.358L252.993 177.606C252.361 178.08 251.669 178.469 250.936 178.763L248.443 179.76C247.884 179.983 247.304 180.15 246.711 180.258L246.441 180.308C245.91 180.404 245.371 180.452 244.831 180.452H241.869C241.069 180.452 240.273 180.346 239.501 180.136L238.554 179.877L234.64 178.479L234.57 178.454L234.499 178.431L233.606 178.133C228.635 176.476 223.5 180.176 223.5 185.417V228C223.5 232.971 219.471 237 214.5 237H162.5V233.188C162.5 233.16 162.507 233.133 162.52 233.107C162.527 233.093 162.536 233.08 162.546 233.068L164.304 231.091L164.424 230.955L164.537 230.813L165.151 230.046C165.843 229.182 166.441 228.247 166.936 227.257C167.51 226.108 167.942 224.892 168.221 223.638L168.303 223.27C168.6 221.932 168.75 220.565 168.75 219.194V218.699C168.75 216.434 168.318 214.191 167.477 212.088C167.019 210.944 166.443 209.85 165.76 208.824L165.234 208.035C164.556 207.017 163.778 206.069 162.913 205.204C162.19 204.481 161.408 203.818 160.575 203.224L160.506 203.174C159.23 202.262 157.849 201.507 156.394 200.925L156.053 200.789C154.72 200.256 153.329 199.884 151.908 199.681C151.063 199.56 150.209 199.5 149.357 199.5C148.275 199.5 147.19 199.598 146.122 199.792L145.701 199.868C143.71 200.23 141.791 200.917 140.022 201.899C138.935 202.504 137.911 203.217 136.966 204.026L136.408 204.503C135.708 205.103 135.056 205.756 134.456 206.456C133.119 208.016 132.059 209.793 131.321 211.71L131.14 212.183C130.477 213.906 130.073 215.719 129.941 217.561C129.758 220.121 130.104 222.693 130.959 225.114L131.068 225.423C131.942 227.898 133.289 230.181 135.033 232.144L135.685 232.877L135.821 233.03L136 233.209V237H84C79.0294 237 75 232.971 75 228V97.5C75.0001 92.5295 79.0295 88.5 84 88.5H125.555C131.653 88.5 135.765 82.2645 133.362 76.6592L133.318 76.5576L133.271 76.4561L132.254 74.2744C131.857 73.4238 131.595 72.5164 131.479 71.585L131.375 70.7539C131.308 70.2183 131.289 69.6776 131.319 69.1387L131.44 66.9492C131.476 66.3034 131.582 65.6633 131.755 65.04L132.246 63.2725C132.446 62.5542 132.734 61.8631 133.104 61.2158L134.513 58.751C134.95 57.9858 135.497 57.2887 136.137 56.6826L137.902 55.0107C138.711 54.245 139.654 53.6354 140.685 53.2139L142.729 52.377C143.375 52.1123 144.052 51.9247 144.742 51.8164L148.475 51.2305Z" stroke="white" stroke-width="14"/>
</g>
<defs>
<clipPath id="clip0_4017_169">
<rect width="300" height="300" rx="53" fill="white"/>
</clipPath>
</defs>
</svg>
