<svg width="300" height="300" viewBox="0 0 300 300" fill="none" xmlns="http://www.w3.org/2000/svg">
<path d="M0 53.9138C0 40.9827 10.4827 30.5 23.4138 30.5H94.2819C100.319 30.5 106.123 32.8321 110.482 37.0093L137.035 62.4562C141.394 66.6335 147.198 68.9655 153.235 68.9655H267.586C280.517 68.9655 291 79.4482 291 92.3793V107C291 108.105 290.105 109 289 109H144C124.67 109 109 124.67 109 144V265.983C109 267.087 108.105 267.983 107 267.983H23.4138C10.4827 267.983 0 257.5 0 244.569V53.9138Z" fill="#BFBFBF"/>
<g clip-path="url(#clip0_4024_561)">
<path d="M111 110.267C111 109.567 111.567 109 112.267 109H300.995V298.995H111V110.267Z" fill="#B74400"/>
<path d="M245.59 151.437C252.434 151.61 257.929 157.213 257.929 164.099V181.832H272.496C275.294 181.832 277.562 184.1 277.562 186.898V191.965H289.912C291.485 191.965 292.761 193.241 292.761 194.814C292.761 196.388 291.486 197.665 289.912 197.665H277.562V210.331H289.912C291.486 210.331 292.761 211.607 292.761 213.181C292.761 214.755 291.486 216.031 289.912 216.031H277.562V221.098C277.562 223.896 275.294 226.164 272.496 226.164H257.929V243.264L257.925 243.591C257.754 250.326 252.326 255.755 245.59 255.926L245.263 255.93H166.098C159.212 255.93 153.61 250.435 153.436 243.591L153.432 243.264V164.099C153.432 157.103 159.103 151.433 166.098 151.433H245.263L245.59 151.437ZM166.098 160.299C164 160.299 162.299 162 162.298 164.099V243.264C162.298 245.362 164 247.063 166.098 247.063H245.263C247.362 247.063 249.063 245.362 249.063 243.264V164.099C249.063 162 247.362 160.299 245.263 160.299H166.098ZM237.667 186.184V222.319L206 240.602L174.334 222.319V186.184L206 167.901L237.667 186.184ZM177.362 220.571L204.487 236.232V205.587L177.362 189.927V220.571ZM207.514 205.587V236.232L234.639 220.571V189.927L207.514 205.587ZM178.661 187.182L206 202.966L233.339 187.182L206 171.396L178.661 187.182Z" fill="white"/>
</g>
<defs>
<clipPath id="clip0_4024_561">
<rect x="111" y="109" width="189" height="189" rx="33.5657" fill="white"/>
</clipPath>
</defs>
</svg>
