<svg width="300" height="300" viewBox="0 0 300 300" fill="none" xmlns="http://www.w3.org/2000/svg">
<path d="M0 53.9138C0 40.9827 10.4827 30.5 23.4138 30.5H94.2819C100.319 30.5 106.123 32.8321 110.482 37.0093L137.035 62.4562C141.394 66.6335 147.198 68.9655 153.235 68.9655H267.586C280.517 68.9655 291 79.4482 291 92.3793V107C291 108.105 290.105 109 289 109H144C124.67 109 109 124.67 109 144V265.983C109 267.087 108.105 267.983 107 267.983H23.4138C10.4827 267.983 0 257.5 0 244.569V53.9138Z" fill="#BFBFBF"/>
<g clip-path="url(#clip0_4023_455)">
<path d="M111 112.267C111 111.567 111.567 111 112.267 111H300.995V300.995H111V112.267Z" fill="#F8DA58"/>
<path d="M179.119 169.534H194.751V221.69C194.751 226.511 193.667 230.699 191.5 234.254C189.358 237.809 186.375 240.548 182.552 242.472C178.729 244.395 174.286 245.357 169.221 245.357C164.716 245.357 160.626 244.566 156.949 242.983C153.297 241.376 150.399 238.941 148.257 235.678C146.114 232.391 145.055 228.264 145.079 223.297H160.821C160.869 225.269 161.271 226.961 162.026 228.374C162.805 229.762 163.864 230.833 165.203 231.588C166.567 232.318 168.174 232.683 170.025 232.683C171.972 232.683 173.616 232.27 174.955 231.442C176.319 230.589 177.354 229.348 178.06 227.716C178.766 226.085 179.119 224.076 179.119 221.69V169.534ZM248.404 191.047C248.112 188.101 246.858 185.812 244.642 184.18C242.426 182.549 239.419 181.733 235.621 181.733C233.04 181.733 230.86 182.099 229.083 182.829C227.305 183.535 225.942 184.521 224.992 185.787C224.067 187.054 223.604 188.49 223.604 190.097C223.556 191.436 223.836 192.605 224.444 193.603C225.077 194.602 225.942 195.466 227.038 196.197C228.133 196.903 229.399 197.524 230.836 198.059C232.273 198.571 233.807 199.009 235.438 199.374L242.158 200.981C245.421 201.712 248.416 202.686 251.143 203.903C253.87 205.12 256.232 206.618 258.229 208.395C260.225 210.173 261.771 212.267 262.867 214.677C263.987 217.088 264.559 219.852 264.584 222.968C264.559 227.546 263.391 231.515 261.077 234.875C258.789 238.211 255.477 240.804 251.143 242.654C246.833 244.481 241.635 245.394 235.548 245.394C229.509 245.394 224.25 244.468 219.769 242.618C215.314 240.767 211.832 238.028 209.324 234.4C206.84 230.748 205.537 226.231 205.416 220.85H220.719C220.889 223.358 221.608 225.452 222.874 227.132C224.164 228.788 225.881 230.042 228.024 230.894C230.191 231.722 232.638 232.136 235.365 232.136C238.043 232.136 240.369 231.746 242.341 230.967C244.338 230.188 245.884 229.104 246.979 227.716C248.075 226.328 248.623 224.734 248.623 222.932C248.623 221.252 248.124 219.839 247.125 218.695C246.152 217.551 244.715 216.577 242.816 215.773C240.941 214.97 238.64 214.239 235.913 213.582L227.768 211.536C221.462 210.002 216.482 207.604 212.83 204.341C209.178 201.079 207.364 196.684 207.388 191.156C207.364 186.627 208.569 182.671 211.004 179.286C213.463 175.902 216.835 173.26 221.121 171.361C225.406 169.461 230.276 168.512 235.73 168.512C241.282 168.512 246.127 169.461 250.266 171.361C254.43 173.26 257.669 175.902 259.982 179.286C262.295 182.671 263.488 186.591 263.561 191.047H248.404Z" fill="black"/>
</g>
<defs>
<clipPath id="clip0_4023_455">
<rect x="111" y="111" width="189" height="189" rx="33.5657" fill="white"/>
</clipPath>
</defs>
</svg>
