<svg width="300" height="300" viewBox="0 0 300 300" fill="none" xmlns="http://www.w3.org/2000/svg">
<g clip-path="url(#clip0_4023_474)">
<path d="M0 2C0 0.895429 0.895431 0 2 0H300V300H0V2Z" fill="#F8DA58"/>
<path d="M107.555 91.8915H132.238V174.244C132.238 181.857 130.527 188.47 127.105 194.083C123.722 199.696 119.012 204.022 112.976 207.059C106.94 210.096 99.9231 211.615 91.9262 211.615C84.8136 211.615 78.3545 210.365 72.549 207.866C66.782 205.329 62.2069 201.484 58.8235 196.332C55.4402 191.142 53.7678 184.625 53.8062 176.782H78.6621C78.739 179.896 79.3733 182.568 80.5652 184.798C81.7955 186.99 83.4679 188.681 85.5825 189.873C87.7355 191.027 90.273 191.603 93.195 191.603C96.2707 191.603 98.8659 190.95 100.98 189.642C103.133 188.297 104.767 186.336 105.882 183.76C106.997 181.184 107.555 178.012 107.555 174.244V91.8915ZM216.955 125.859C216.494 121.207 214.514 117.593 211.015 115.017C207.516 112.441 202.768 111.153 196.771 111.153C192.695 111.153 189.254 111.73 186.448 112.883C183.641 113.998 181.488 115.555 179.989 117.555C178.528 119.554 177.797 121.822 177.797 124.36C177.72 126.474 178.162 128.32 179.124 129.896C180.123 131.472 181.488 132.837 183.218 133.991C184.948 135.106 186.947 136.086 189.216 136.932C191.484 137.739 193.906 138.431 196.482 139.008L207.094 141.546C212.245 142.699 216.974 144.237 221.28 146.159C225.586 148.081 229.316 150.446 232.468 153.253C235.621 156.059 238.062 159.366 239.793 163.172C241.561 166.978 242.465 171.342 242.503 176.263C242.465 183.491 240.619 189.758 236.967 195.063C233.353 200.331 228.124 204.425 221.28 207.347C214.475 210.231 206.267 211.672 196.655 211.672C187.12 211.672 178.816 210.211 171.742 207.29C164.706 204.368 159.208 200.042 155.248 194.314C151.326 188.547 149.27 181.415 149.077 172.918H173.241C173.51 176.878 174.644 180.185 176.644 182.837C178.681 185.452 181.392 187.432 184.775 188.777C188.197 190.085 192.061 190.738 196.367 190.738C200.596 190.738 204.268 190.123 207.382 188.893C210.535 187.662 212.976 185.952 214.706 183.76C216.436 181.569 217.301 179.05 217.301 176.205C217.301 173.552 216.513 171.323 214.937 169.516C213.399 167.709 211.13 166.171 208.132 164.902C205.171 163.633 201.538 162.48 197.232 161.442L184.371 158.212C174.414 155.79 166.551 152.003 160.784 146.851C155.017 141.699 152.153 134.76 152.192 126.032C152.153 118.881 154.056 112.634 157.901 107.289C161.784 101.945 167.109 97.7739 173.876 94.775C180.642 91.7762 188.332 90.2767 196.944 90.2767C205.709 90.2767 213.36 91.7762 219.896 94.775C226.471 97.7739 231.584 101.945 235.237 107.289C238.889 112.634 240.773 118.823 240.888 125.859H216.955Z" fill="black"/>
</g>
<defs>
<clipPath id="clip0_4023_474">
<rect width="300" height="300" rx="53" fill="white"/>
</clipPath>
</defs>
</svg>
