<svg width="300" height="300" viewBox="0 0 300 300" fill="none" xmlns="http://www.w3.org/2000/svg">
<g clip-path="url(#clip0_4024_545)">
<path d="M0 2C0 0.895429 0.895431 0 2 0H300V300H0V2Z" fill="#4F6475"/>
<path d="M99.0997 55.3027H167.824V88.3789C167.824 101.117 178.151 111.443 190.889 111.443H223.965V221.104C223.965 233.842 213.639 244.168 200.901 244.168H99.0997C86.3617 244.168 76.0353 233.842 76.0353 221.104V78.3672C76.0353 65.6291 86.3617 55.3027 99.0997 55.3027ZM104.971 186.858C101.896 186.858 99.4034 189.351 99.4034 192.426C99.4037 195.5 101.896 197.992 104.971 197.992H165.789C168.864 197.992 171.356 195.5 171.357 192.426C171.357 189.351 168.864 186.858 165.789 186.858H104.971ZM104.971 156.449C101.896 156.449 99.4037 158.941 99.4034 162.016C99.4034 165.09 101.896 167.583 104.971 167.583H194.444C197.519 167.583 200.012 165.09 200.012 162.016C200.012 158.941 197.519 156.449 194.444 156.449H104.971ZM178.959 63.2148L197.751 82.085L197.768 82.1016L216.052 100.309H190.889C184.3 100.309 178.959 94.9674 178.959 88.3789V63.2148Z" stroke="white" stroke-width="11.1345" stroke-linecap="round"/>
</g>
<defs>
<clipPath id="clip0_4024_545">
<rect width="300" height="300" rx="53" fill="white"/>
</clipPath>
</defs>
</svg>
