<svg width="300" height="300" viewBox="0 0 300 300" fill="none" xmlns="http://www.w3.org/2000/svg">
<path d="M0 53.9138C0 40.9827 10.4827 30.5 23.4138 30.5H94.2819C100.319 30.5 106.123 32.8321 110.482 37.0093L137.035 62.4562C141.394 66.6335 147.198 68.9655 153.235 68.9655H267.586C280.517 68.9655 291 79.4482 291 92.3793V107C291 108.105 290.105 109 289 109H144C124.67 109 109 124.67 109 144V265.983C109 267.087 108.105 267.983 107 267.983H23.4138C10.4827 267.983 0 257.5 0 244.569V53.9138Z" fill="#BFBFBF"/>
<g clip-path="url(#clip0_4024_514)">
<path d="M111 111.267C111 110.567 111.567 110 112.267 110H300.995V299.995H111V111.267Z" fill="#4F6475"/>
<path d="M173.761 145.023H217.286V165.972C217.286 174.039 223.826 180.578 231.893 180.578H252.84V250.028C252.84 258.095 246.301 264.636 238.234 264.636H173.761C165.694 264.636 159.154 258.096 159.154 250.028V159.631C159.154 151.564 165.694 145.023 173.761 145.023ZM177.48 228.34C175.533 228.34 173.954 229.919 173.954 231.866C173.954 233.813 175.533 235.392 177.48 235.392H215.998C217.945 235.391 219.523 233.813 219.523 231.866C219.523 229.919 217.945 228.34 215.998 228.34H177.48ZM177.48 209.081C175.533 209.081 173.954 210.66 173.954 212.607C173.954 214.555 175.533 216.133 177.48 216.133H234.145C236.092 216.133 237.67 214.554 237.67 212.607C237.67 210.66 236.092 209.081 234.145 209.081H177.48ZM224.337 150.034L236.239 161.985L236.25 161.996L247.829 173.526H231.893C227.72 173.526 224.338 170.144 224.337 165.972V150.034Z" stroke="white" stroke-width="7.05166" stroke-linecap="round"/>
</g>
<defs>
<clipPath id="clip0_4024_514">
<rect x="111" y="110" width="189" height="189" rx="33.5657" fill="white"/>
</clipPath>
</defs>
</svg>
