<svg width="300" height="300" viewBox="0 0 300 300" fill="none" xmlns="http://www.w3.org/2000/svg">
<g clip-path="url(#clip0_4003_195)">
<path d="M0 52.1379C0 38.8069 10.8069 28 24.1379 28H97.1978C103.422 28 109.405 30.4042 113.899 34.7106L141.273 60.9445C145.767 65.251 151.751 67.6552 157.975 67.6552H275.862C289.193 67.6552 300 78.4621 300 91.7931V248.69C300 262.021 289.193 272.828 275.862 272.828H24.1379C10.8069 272.828 0 262.021 0 248.69V52.1379Z" fill="#BFBFBF"/>
<g filter="url(#filter0_d_4003_195)">
<rect x="85.32" y="110.32" width="56.2667" height="56.2667" fill="#178746"/>
<rect x="150.867" y="110.32" width="56.2667" height="56.2667" fill="#178746"/>
<rect x="216.413" y="110.32" width="56.2667" height="56.2667" fill="#178746"/>
<rect x="85.32" y="175.867" width="56.2667" height="56.2667" fill="#178746"/>
<rect x="150.867" y="175.867" width="56.2667" height="56.2667" fill="#178746"/>
<rect x="216.413" y="175.867" width="56.2667" height="56.2667" fill="#178746"/>
<rect x="85.32" y="241.413" width="56.2667" height="56.2667" fill="#178746"/>
<rect x="150.867" y="241.413" width="56.2667" height="56.2667" fill="#178746"/>
<rect x="216.413" y="241.413" width="56.2667" height="56.2667" fill="#178746"/>
</g>
</g>
<defs>
<filter id="filter0_d_4003_195" x="78.5277" y="103.528" width="200.945" height="200.945" filterUnits="userSpaceOnUse" color-interpolation-filters="sRGB">
<feFlood flood-opacity="0" result="BackgroundImageFix"/>
<feColorMatrix in="SourceAlpha" type="matrix" values="0 0 0 0 0 0 0 0 0 0 0 0 0 0 0 0 0 0 127 0" result="hardAlpha"/>
<feOffset/>
<feGaussianBlur stdDeviation="2.23617"/>
<feComposite in2="hardAlpha" operator="out"/>
<feColorMatrix type="matrix" values="0 0 0 0 0.360784 0 0 0 0 0.552941 0 0 0 0 0.964706 0 0 0 1 0"/>
<feBlend mode="normal" in2="BackgroundImageFix" result="effect1_dropShadow_4003_195"/>
<feBlend mode="normal" in="SourceGraphic" in2="effect1_dropShadow_4003_195" result="shape"/>
</filter>
<clipPath id="clip0_4003_195">
<rect width="300" height="300" fill="white"/>
</clipPath>
</defs>
</svg>
