<svg width="300" height="300" viewBox="0 0 300 300" fill="none" xmlns="http://www.w3.org/2000/svg">
<g clip-path="url(#clip0_4005_74)">
<path d="M0 54.4138C0 41.4827 10.4827 31 23.4138 31H94.2819C100.319 31 106.123 33.3321 110.482 37.5093L137.035 62.9562C141.394 67.1334 147.198 69.4655 153.235 69.4655H267.586C280.517 69.4655 291 79.9482 291 92.8793V111.5C291 112.605 290.105 113.5 289 113.5H96C76.1177 113.5 60 129.618 60 149.5V266.483C60 267.587 59.1046 268.483 58 268.483H23.4138C10.4827 268.483 0 258 0 245.069V54.4138Z" fill="#BFBFBF"/>
<g clip-path="url(#clip1_4005_74)">
<rect x="71.52" y="124.493" width="218.96" height="165.807" rx="25.3867" fill="white" stroke="#5C8DF6" stroke-width="19.04"/>
</g>
</g>
<defs>
<clipPath id="clip0_4005_74">
<rect width="300" height="300" fill="white"/>
</clipPath>
<clipPath id="clip1_4005_74">
<rect width="238" height="238" fill="white" transform="translate(62 88)"/>
</clipPath>
</defs>
</svg>
