<svg width="300" height="300" viewBox="0 0 300 300" fill="none" xmlns="http://www.w3.org/2000/svg">
<g clip-path="url(#clip0_4003_195)">
<path d="M0 54.4138C0 41.4827 10.4827 31 23.4138 31H94.2819C100.319 31 106.123 33.3321 110.482 37.5093L137.035 62.9562C141.394 67.1335 147.198 69.4655 153.235 69.4655H267.586C280.517 69.4655 291 79.9482 291 92.8793V107C291 108.105 290.105 109 289 109H110.69C109.585 109 108.69 109.895 108.69 111V266.483C108.69 267.587 107.794 268.483 106.69 268.483H23.4138C10.4827 268.483 0 258 0 245.069V54.4138Z" fill="#BFBFBF"/>
<g filter="url(#filter0_d_4003_195)">
<path d="M110.32 111.48C110.32 110.839 110.839 110.32 111.48 110.32H166.587V166.587H110.32V111.48Z" fill="#5C8DF6"/>
<rect x="175.867" y="110.32" width="56.2667" height="56.2667" fill="#5C8DF6"/>
<path d="M241.413 110.32H296.52C297.161 110.32 297.68 110.839 297.68 111.48V166.587H241.413V110.32Z" fill="#5C8DF6"/>
<rect x="110.32" y="175.867" width="56.2667" height="56.2667" fill="#5C8DF6"/>
<rect x="175.867" y="175.867" width="56.2667" height="56.2667" fill="#5C8DF6"/>
<rect x="241.413" y="175.867" width="56.2667" height="56.2667" fill="#5C8DF6"/>
<path d="M110.32 241.413H166.587V297.68H111.48C110.839 297.68 110.32 297.161 110.32 296.52V241.413Z" fill="#5C8DF6"/>
<rect x="175.867" y="241.413" width="56.2667" height="56.2667" fill="#5C8DF6"/>
<path d="M241.413 241.413H297.68V296.52C297.68 297.161 297.161 297.68 296.52 297.68H241.413V241.413Z" fill="#5C8DF6"/>
</g>
</g>
<defs>
<filter id="filter0_d_4003_195" x="103.528" y="103.528" width="200.945" height="200.945" filterUnits="userSpaceOnUse" color-interpolation-filters="sRGB">
<feFlood flood-opacity="0" result="BackgroundImageFix"/>
<feColorMatrix in="SourceAlpha" type="matrix" values="0 0 0 0 0 0 0 0 0 0 0 0 0 0 0 0 0 0 127 0" result="hardAlpha"/>
<feOffset/>
<feGaussianBlur stdDeviation="2.23617"/>
<feComposite in2="hardAlpha" operator="out"/>
<feColorMatrix type="matrix" values="0 0 0 0 0.360784 0 0 0 0 0.552941 0 0 0 0 0.964706 0 0 0 1 0"/>
<feBlend mode="normal" in2="BackgroundImageFix" result="effect1_dropShadow_4003_195"/>
<feBlend mode="normal" in="SourceGraphic" in2="effect1_dropShadow_4003_195" result="shape"/>
</filter>
<clipPath id="clip0_4003_195">
<rect width="300" height="300" fill="white"/>
</clipPath>
</defs>
</svg>
