<svg width="300" height="300" viewBox="0 0 300 300" fill="none" xmlns="http://www.w3.org/2000/svg">
<g clip-path="url(#clip0_4022_378)">
<path d="M0 2C0 0.895429 0.895431 0 2 0H300V300H0V2Z" fill="#0A4750"/>
<path d="M121.474 40.4459C144.452 23.1115 177.164 27.4306 194.84 50.2535L195.254 50.7941C212.588 73.7717 208.269 106.484 185.447 124.159L184.906 124.574C170.101 135.742 151.255 137.919 134.994 131.951L116.739 178.466C118.375 179.758 119.883 181.266 121.217 182.988L121.623 183.527C122.481 184.694 123.225 185.912 123.863 187.165L191.686 178.236C191.365 167.48 196.016 156.724 205.174 149.631L205.892 149.09C221.064 137.943 242.444 140.871 254.038 155.842L254.579 156.559C265.726 171.731 262.798 193.111 247.828 204.706L247.11 205.247C232.178 216.217 211.235 213.555 199.523 199.198L198.964 198.495C197.353 196.416 196.016 194.212 194.945 191.926L126.613 200.923C126.08 208.044 122.649 214.92 116.559 219.637L116.021 220.043C104.642 228.403 88.607 226.206 79.9112 214.978C71.078 203.572 73.1632 187.165 84.569 178.331C90.2609 173.923 97.1986 172.234 103.819 173.066L122.537 125.371C118.649 122.588 115.079 119.226 111.96 115.303L111.54 114.767C93.7255 91.7641 97.9311 58.6745 120.934 40.8596L121.474 40.4459ZM212.032 158.486C201.714 166.477 199.828 181.319 207.819 191.637C215.81 201.955 230.652 203.842 240.97 195.851C251.287 187.86 253.174 173.018 245.183 162.7C237.192 152.382 222.35 150.496 212.032 158.486ZM89.7126 184.973C81.9746 190.966 80.5602 202.096 86.5527 209.835C92.5458 217.573 103.677 218.988 111.416 212.995C119.154 207.002 120.569 195.87 114.576 188.132C108.582 180.394 97.4508 178.98 89.7126 184.973ZM131.306 54.253C115.701 66.3393 112.847 88.7881 124.934 104.394C137.02 119.999 159.469 122.853 175.075 110.767C190.68 98.6805 193.533 76.2315 181.447 60.6257C169.361 45.02 146.912 42.167 131.306 54.253Z" fill="white"/>
</g>
<defs>
<clipPath id="clip0_4022_378">
<rect width="300" height="300" rx="53" fill="white"/>
</clipPath>
</defs>
</svg>
