<svg width="300" height="300" viewBox="0 0 300 300" fill="none" xmlns="http://www.w3.org/2000/svg">
<path d="M0 53.9138C0 40.9827 10.4827 30.5 23.4138 30.5H94.2819C100.319 30.5 106.123 32.8321 110.482 37.0093L137.035 62.4562C141.394 66.6335 147.198 68.9655 153.235 68.9655H267.586C280.517 68.9655 291 79.4482 291 92.3793V107C291 108.105 290.105 109 289 109H144C124.67 109 109 124.67 109 144V265.983C109 267.087 108.105 267.983 107 267.983H23.4138C10.4827 267.983 0 257.5 0 244.569V53.9138Z" fill="#BFBFBF"/>
<g clip-path="url(#clip0_4022_353)">
<path d="M111 112.267C111 111.567 111.567 111 112.267 111H300.995V300.995H111V112.267Z" fill="#0A4750"/>
<path d="M188.28 136.36C202.813 125.683 223.292 128.488 234.398 142.828L234.917 143.516C245.595 158.049 242.79 178.528 228.449 189.635L227.762 190.153C218.439 197.003 206.669 198.303 196.496 194.57L184.936 224.028C185.972 224.846 186.927 225.802 187.772 226.893L188.029 227.234C188.572 227.973 189.044 228.744 189.447 229.537L232.401 223.882C232.198 217.07 235.143 210.259 240.943 205.767L241.398 205.423C251.006 198.364 264.547 200.219 271.89 209.7L272.232 210.155C279.292 219.763 277.438 233.303 267.957 240.646L267.502 240.989C258.046 247.936 244.782 246.251 237.364 237.159L237.01 236.713C235.99 235.396 235.143 234 234.465 232.553L191.188 238.25C190.851 242.76 188.679 247.115 184.822 250.103L184.481 250.359C177.389 255.57 167.441 254.306 161.878 247.486L161.612 247.153C156.018 239.929 157.339 229.537 164.562 223.943L164.903 223.686C168.442 221.086 172.692 220.099 176.753 220.609L188.608 190.401C186.257 188.718 184.09 186.702 182.179 184.36L181.643 183.686C170.361 169.118 173.024 148.162 187.592 136.879L188.28 136.36ZM245.286 211.374C238.752 216.435 237.557 225.836 242.618 232.37C247.679 238.904 257.079 240.099 263.613 235.038C270.147 229.977 271.342 220.578 266.281 214.043C261.221 207.509 251.821 206.314 245.286 211.374ZM167.82 228.149C162.919 231.945 162.023 238.994 165.819 243.895C169.614 248.796 176.664 249.692 181.565 245.896C186.465 242.101 187.361 235.051 183.566 230.15C179.77 225.249 172.721 224.354 167.82 228.149ZM194.161 145.361C184.278 153.016 182.471 167.233 190.125 177.116C197.78 187 211.997 188.807 221.88 181.152C231.764 173.498 233.571 159.281 225.916 149.397C218.262 139.514 204.045 137.707 194.161 145.361Z" fill="white"/>
</g>
<defs>
<clipPath id="clip0_4022_353">
<rect x="111" y="111" width="189" height="189" rx="33.5657" fill="white"/>
</clipPath>
</defs>
</svg>
