<svg width="300" height="300" viewBox="0 0 300 300" fill="none" xmlns="http://www.w3.org/2000/svg">
<g clip-path="url(#clip0_4017_149)">
<path d="M0 2C0 0.895429 0.895431 0 2 0H300V300H0V2Z" fill="#1B84E7"/>
<path d="M148.845 252.615C209.601 245.447 215.745 53.9626 148.845 46.4534M148.845 252.615C89.454 252.615 82.2861 50.8906 148.845 46.4534M148.845 252.615V46.4534M148.845 252.615C106.303 252.615 76.7526 230.32 61.179 200.392M148.845 252.615C192.523 250.868 222.508 229.139 238.53 200.392M148.845 46.4534C103.962 46.4534 74.5823 68.0736 59.7648 97.3112M148.845 46.4534C194.551 46.4534 224.961 68.0717 240.367 97.3112M59.7648 97.3112H240.367M59.7648 97.3112C51.9063 112.818 48.1438 130.466 48.337 148.169M240.367 97.3112C248.537 112.816 252.487 130.465 252.261 148.169M252.261 148.169H48.337M252.261 148.169C252.03 166.261 247.437 184.411 238.53 200.392M48.337 148.169C48.5345 166.264 52.8651 184.416 61.179 200.392M61.179 200.392H238.53" stroke="white" stroke-width="9.55718"/>
</g>
<defs>
<clipPath id="clip0_4017_149">
<rect width="300" height="300" rx="53" fill="white"/>
</clipPath>
</defs>
</svg>
