<svg width="300" height="300" viewBox="0 0 300 300" fill="none" xmlns="http://www.w3.org/2000/svg">
<path d="M0 53.9138C0 40.9827 10.4827 30.5 23.4138 30.5H94.2819C100.319 30.5 106.123 32.8321 110.482 37.0093L137.035 62.4562C141.394 66.6335 147.198 68.9655 153.235 68.9655H267.586C280.517 68.9655 291 79.4482 291 92.3793V107C291 108.105 290.105 109 289 109H144C124.67 109 109 124.67 109 144V265.983C109 267.087 108.105 267.983 107 267.983H23.4138C10.4827 267.983 0 257.5 0 244.569V53.9138Z" fill="#BFBFBF"/>
<g clip-path="url(#clip0_4022_302)">
<path d="M111 112.267C111 111.567 111.567 111 112.267 111H300.995V300.995H111V112.267Z" fill="#D35400"/>
<path d="M202.973 208.542V273.326L145.696 240.257V175.472L202.973 208.542ZM266.304 240.257L209.027 273.326V208.542L266.304 175.472V240.257ZM263.707 169.981L206 203.299L148.292 169.981L206 136.664L263.707 169.981Z" stroke="white" stroke-width="6.0545"/>
</g>
<defs>
<clipPath id="clip0_4022_302">
<rect x="111" y="111" width="189" height="189" rx="33.5657" fill="white"/>
</clipPath>
</defs>
</svg>
