<svg width="300" height="300" viewBox="0 0 300 300" fill="none" xmlns="http://www.w3.org/2000/svg">
<g clip-path="url(#clip0_4022_438)">
<path d="M0 2C0 0.895429 0.895431 0 2 0H300V300H0V2Z" fill="#C97F2A"/>
<path d="M193.729 81.0039C222.509 81.3685 245.728 104.814 245.728 133.681L245.724 134.361C245.359 163.142 221.915 186.36 193.048 186.36L192.366 186.356C173.822 186.121 157.591 176.303 148.388 161.628L105.474 187.226C105.976 189.249 106.245 191.364 106.245 193.543L106.236 194.218C105.879 208.333 94.3236 219.666 80.1221 219.666L79.4482 219.657C65.3328 219.3 54 207.745 54 193.543C54.0004 179.116 65.6955 167.421 80.1221 167.421C87.3214 167.421 93.8403 170.334 98.5654 175.045L142.568 148.798C141.198 144.216 140.435 139.373 140.371 134.361L140.367 133.681C140.367 104.586 163.953 81 193.048 81L193.729 81.0039ZM80.1221 175.821C70.3347 175.821 62.4008 183.756 62.4004 193.543C62.4004 203.331 70.3344 211.265 80.1221 211.266C89.9099 211.266 97.8447 203.331 97.8447 193.543C97.8443 183.756 89.9096 175.821 80.1221 175.821ZM193.048 97.9404C173.309 97.9405 157.308 113.942 157.308 133.681C157.308 153.419 173.309 169.421 193.048 169.421C212.786 169.421 228.788 153.419 228.788 133.681C228.788 113.942 212.786 97.9406 193.048 97.9404Z" fill="white"/>
</g>
<defs>
<clipPath id="clip0_4022_438">
<rect width="300" height="300" rx="53" fill="white"/>
</clipPath>
</defs>
</svg>
