<svg width="300" height="300" viewBox="0 0 300 300" fill="none" xmlns="http://www.w3.org/2000/svg">
<path d="M0 53.9138C0 40.9827 10.4827 30.5 23.4138 30.5H94.2819C100.319 30.5 106.123 32.8321 110.482 37.0093L137.035 62.4562C141.394 66.6335 147.198 68.9655 153.235 68.9655H267.586C280.517 68.9655 291 79.4482 291 92.3793V107C291 108.105 290.105 109 289 109H144C124.67 109 109 124.67 109 144V265.983C109 267.087 108.105 267.983 107 267.983H23.4138C10.4827 267.983 0 257.5 0 244.569V53.9138Z" fill="#BFBFBF"/>
<g clip-path="url(#clip0_4022_428)">
<path d="M111 112.267C111 111.567 111.567 111 112.267 111H300.995V300.995H111V112.267Z" fill="#C97F2A"/>
<path d="M234.125 162.312C252.152 162.769 266.626 177.527 266.626 195.665L266.616 196.526C266.159 214.554 251.401 229.028 233.263 229.028L232.402 229.017C220.837 228.724 210.736 222.544 204.979 213.364L177.801 229.576C178.12 230.857 178.29 232.198 178.29 233.578L178.284 234.004C178.057 242.944 170.74 250.121 161.746 250.122L161.319 250.116C152.521 249.893 145.43 242.802 145.208 234.004L145.202 233.578C145.202 224.441 152.609 217.034 161.746 217.034L162.172 217.04C166.562 217.151 170.526 218.973 173.425 221.863L201.294 205.239C200.466 202.469 199.987 199.547 199.911 196.526L199.9 195.665C199.9 177.239 214.837 162.301 233.263 162.301L234.125 162.312ZM161.746 222.354C155.547 222.354 150.522 227.379 150.522 233.578C150.522 239.776 155.547 244.801 161.746 244.801C167.944 244.801 172.969 239.776 172.969 233.578C172.969 227.379 167.944 222.354 161.746 222.354ZM233.263 173.03C220.762 173.03 210.629 183.164 210.628 195.665C210.628 208.165 220.762 218.299 233.263 218.299C245.764 218.299 255.898 208.165 255.898 195.665C255.898 183.164 245.764 173.03 233.263 173.03Z" fill="white"/>
</g>
<defs>
<clipPath id="clip0_4022_428">
<rect x="111" y="111" width="189" height="189" rx="33.5657" fill="white"/>
</clipPath>
</defs>
</svg>
