<svg width="300" height="300" viewBox="0 0 300 300" fill="none" xmlns="http://www.w3.org/2000/svg">
<g clip-path="url(#clip0_4024_489)">
<path d="M0 2C0 0.895429 0.895431 0 2 0H300V300H0V2Z" fill="#9B51E0"/>
<path d="M149.5 84.4482C204.728 84.4482 249.5 113.797 249.5 150C249.5 157.092 247.781 163.921 244.603 170.318C238.927 164.479 229.901 160.702 219.734 160.702C202.556 160.702 188.631 171.483 188.631 184.782C188.631 193.423 194.51 201 203.341 205.248C187.799 211.77 169.323 215.552 149.5 215.552C94.2715 215.552 49.5 186.203 49.5 150C49.5001 113.797 94.2716 84.4482 149.5 84.4482ZM114.756 167.735C111.14 162.916 101.664 163.919 93.5908 169.977C85.5179 176.034 81.9046 184.851 85.5205 189.671C89.1367 194.491 98.6135 193.487 106.687 187.43C114.759 181.372 118.372 172.555 114.756 167.735ZM76.5898 139.967C67.9087 139.967 60.8711 146.855 60.8711 155.352C60.8713 163.848 67.9088 170.735 76.5898 170.735C85.2711 170.735 92.3094 163.848 92.3096 155.352C92.3096 146.855 85.2712 139.967 76.5898 139.967ZM96.6572 107.859C87.9758 107.859 80.9385 114.747 80.9385 123.244C80.9385 131.741 87.9758 138.629 96.6572 138.629C105.339 138.629 112.376 131.741 112.376 123.244C112.376 114.747 105.339 107.859 96.6572 107.859ZM131.439 92.4746C122.758 92.4748 115.721 99.3629 115.721 107.859C115.721 116.356 122.758 123.244 131.439 123.244C140.121 123.244 147.159 116.356 147.159 107.859C147.159 99.3628 140.121 92.4746 131.439 92.4746ZM171.239 90.4678C162.743 90.4678 155.854 97.2066 155.854 105.519C155.855 113.83 162.743 120.568 171.239 120.568C179.736 120.568 186.624 113.83 186.624 105.519C186.624 97.2066 179.736 90.4678 171.239 90.4678Z" fill="white"/>
</g>
<defs>
<clipPath id="clip0_4024_489">
<rect width="300" height="300" rx="53" fill="white"/>
</clipPath>
</defs>
</svg>
