<svg width="300" height="300" viewBox="0 0 300 300" fill="none" xmlns="http://www.w3.org/2000/svg">
<path d="M0 53.9138C0 40.9827 10.4827 30.5 23.4138 30.5H94.2819C100.319 30.5 106.123 32.8321 110.482 37.0093L137.035 62.4562C141.394 66.6335 147.198 68.9655 153.235 68.9655H267.586C280.517 68.9655 291 79.4482 291 92.3793V107C291 108.105 290.105 109 289 109H144C124.67 109 109 124.67 109 144V265.983C109 267.087 108.105 267.983 107 267.983H23.4138C10.4827 267.983 0 257.5 0 244.569V53.9138Z" fill="#BFBFBF"/>
<g clip-path="url(#clip0_4024_479)">
<path d="M111 111.267C111 110.567 111.567 110 112.267 110H300.995V299.995H111V111.267Z" fill="#9B51E0"/>
<path d="M205.681 163.482C240.658 163.483 269.012 182.069 269.012 204.997C269.012 209.489 267.923 213.814 265.91 217.865C262.315 214.167 256.599 211.775 250.161 211.775C239.282 211.776 230.463 218.603 230.462 227.025C230.462 232.498 234.186 237.296 239.778 239.986C229.935 244.116 218.235 246.513 205.681 246.513C170.704 246.513 142.349 227.925 142.349 204.997C142.349 182.069 170.704 163.482 205.681 163.482ZM183.677 216.229C181.387 213.177 175.386 213.813 170.273 217.648C165.16 221.485 162.871 227.07 165.162 230.122C167.452 233.174 173.453 232.538 178.566 228.702C183.679 224.866 185.967 219.282 183.677 216.229ZM159.505 198.643C154.008 198.643 149.55 203.006 149.55 208.387C149.55 213.767 154.008 218.13 159.505 218.13C165.003 218.13 169.461 213.768 169.461 208.387C169.461 203.006 165.003 198.643 159.505 198.643ZM172.214 178.31C166.716 178.31 162.259 182.672 162.259 188.053C162.259 193.434 166.716 197.796 172.214 197.796C177.712 197.796 182.169 193.434 182.169 188.053C182.169 182.672 177.712 178.31 172.214 178.31ZM194.243 168.565C188.745 168.566 184.288 172.929 184.288 178.31C184.288 183.69 188.745 188.053 194.243 188.053C199.741 188.053 204.198 183.69 204.198 178.31C204.198 172.928 199.741 168.565 194.243 168.565ZM219.449 167.295C214.068 167.295 209.706 171.562 209.706 176.826C209.706 182.09 214.068 186.358 219.449 186.358C224.83 186.358 229.192 182.09 229.192 176.826C229.192 171.562 224.83 167.295 219.449 167.295Z" fill="white"/>
</g>
<defs>
<clipPath id="clip0_4024_479">
<rect x="111" y="110" width="189" height="189" rx="33.5657" fill="white"/>
</clipPath>
</defs>
</svg>
